<svg width="260" height="260" viewBox="0 0 260 260" fill="none" xmlns="http://www.w3.org/2000/svg">
<path d="M7.95968 76.2722C0.578348 81.5302 -3.74792 92.6652 4.40727 105.979C12.5625 119.292 129.074 209.158 133.344 211.653C137.617 214.151 141.891 214.566 152.762 205.83C163.638 197.091 254.499 128.835 256.844 126.782C260.575 123.515 261.504 115.548 256.844 111.802C256.844 111.802 146.767 194.178 143.163 197.509C139.56 200.837 133.953 195.429 135.005 188.357C136.064 181.283 136.841 180.449 150.822 169.633C164.803 158.815 244.072 98.7377 247.669 96.082C251.742 93.0725 251.839 87.757 245.169 83.0566C235.894 76.5212 135.666 5.24098 132.313 2.74573C128.951 0.248429 124.298 -2.02052 117.309 2.97203C110.319 7.96459 21.5203 66.6101 7.95968 76.2722Z" fill="#316DC2"/>
<path d="M133.344 220.422C130.541 218.783 79.4208 179.533 42.2894 148.973V212.692C42.2606 259.204 173.306 284.056 216.721 226.877V165.977C190.051 186.128 158.855 209.703 152.762 214.596C141.891 223.333 137.617 222.917 133.344 220.422Z" fill="#316DC2"/>
<path d="M188.799 150.555C188.799 150.555 208.283 160.351 209.67 199.771L200.23 197.169L192.677 213.212C189.482 170.046 172.083 163.787 172.083 163.787L188.799 150.555Z" fill="#98B8E6"/>
</svg>
