<svg width="52" height="52" viewBox="0 0 52 52" fill="none" xmlns="http://www.w3.org/2000/svg">
<rect width="52" height="52" rx="26" fill="white"/>
<path d="M11.9184 19.8006C11.0667 20.4073 10.5675 21.6921 11.5085 23.2283C12.4495 24.7645 25.8931 35.1336 26.3859 35.4215C26.8789 35.7097 27.3721 35.7576 28.6264 34.7496C29.8813 33.7413 40.3653 25.8656 40.6358 25.6287C41.0663 25.2518 41.1735 24.3325 40.6358 23.9003C40.6358 23.9003 27.9346 33.4052 27.5188 33.7895C27.1031 34.1735 26.4561 33.5495 26.5776 32.7335C26.6996 31.9172 26.7894 31.8211 28.4026 30.5731C30.0158 29.3248 39.1622 22.3928 39.5772 22.0864C40.0471 21.7391 40.0584 21.1258 39.2887 20.5834C38.2185 19.8294 26.6538 11.6047 26.2669 11.3168C25.879 11.0287 25.3421 10.7669 24.5356 11.3429C23.7291 11.919 13.4831 18.6858 11.9184 19.8006Z" fill="#316DC2"/>
<path d="M26.3859 36.4333C26.0624 36.2442 20.1639 31.7154 15.8795 28.1892V35.5413C15.8762 40.9082 30.9969 43.7757 36.0062 37.1781V30.1512C32.9289 32.4764 29.3294 35.1965 28.6264 35.7611C27.3721 36.7692 26.8789 36.7212 26.3859 36.4333Z" fill="#316DC2"/>
<path d="M32.7845 28.3718C32.7845 28.3718 35.0327 29.5021 35.1926 34.0505L34.1034 33.7503L33.232 35.6014C32.8633 30.6207 30.8557 29.8985 30.8557 29.8985L32.7845 28.3718Z" fill="#98B8E6"/>
</svg>
